<svg width="512" height="512" viewBox="0 0 512 512" fill="none" xmlns="http://www.w3.org/2000/svg">
  <rect opacity="0.1" width="512" height="512" fill="#6EEDA5" />
  <path d="M206.187 255.614L239.091 288.655L305.037 222.573" stroke="#6EEDA5" stroke-width="20.48"
    stroke-linecap="round" stroke-linejoin="round" />
  <path
    d="M238.545 125.221C247.966 117.166 263.394 117.166 272.951 125.221L294.524 143.79C298.62 147.34 306.265 150.207 311.727 150.207H334.937C349.41 150.207 361.288 162.085 361.288 176.558V199.769C361.288 205.093 364.156 212.876 367.705 216.972L386.274 238.544C394.329 247.965 394.329 263.393 386.274 272.95L367.705 294.523C364.156 298.619 361.288 306.265 361.288 311.726V334.937C361.288 349.409 349.41 361.287 334.937 361.287H311.727C306.402 361.287 298.62 364.155 294.524 367.705L272.951 386.273C263.531 394.329 248.102 394.329 238.545 386.273L216.973 367.705C212.877 364.155 205.231 361.287 199.769 361.287H176.149C161.677 361.287 149.798 349.409 149.798 334.937V311.589C149.798 306.265 146.931 298.619 143.518 294.523L125.086 272.814C117.167 263.393 117.167 248.101 125.086 238.681L143.518 216.972C146.931 212.876 149.798 205.23 149.798 199.905V176.421C149.798 161.949 161.677 150.07 176.149 150.07H199.769C205.094 150.07 212.877 147.203 216.973 143.653L238.545 125.221Z"
    stroke="#6EEDA5" stroke-width="20.48" stroke-linecap="round" stroke-linejoin="round" />
</svg>
  