<svg width="3440" height="1440" viewBox="0 0 3440 1440" fill="none"
  xmlns="http://www.w3.org/2000/svg">
  <g clip-path="url(#clip0_24_46)">
    <rect width="3440" height="1440" fill="#06335C" />
    <path fill-rule="evenodd" clip-rule="evenodd"
      d="M1575.5 -575.178C1474.68 -861.164 1061.25 -1156.99 1061.25 -1156.99L343.809 -175.206L-199 567.598L2578.44 2597.23L3121.25 1854.43L3393.57 1481.77C3393.57 1481.77 3035.42 1322.37 2666.07 658.686C2539.03 430.412 2396.08 356.579 2246.39 279.267C2027.59 166.263 1794.41 45.8273 1575.5 -575.178Z"
      fill="#0A5CA4" />
    <path fill-rule="evenodd" clip-rule="evenodd"
      d="M462.25 56.7688C295.892 -196.759 -176.345 -384.985 -176.345 -384.985L-637.839 740.022L-987 1591.19L2195.63 2896.75L2544.79 2045.58L2719.96 1618.56C2719.96 1618.56 2334.06 1549.55 1816.54 993.612C1638.54 802.397 1482.06 764.941 1318.22 725.719C1078.73 668.392 823.487 607.293 462.25 56.7688Z"
      fill="#0D81E8" />
    <g filter="url(#filter0_b_24_46)">
      <path fill-rule="evenodd" clip-rule="evenodd"
        d="M2767.04 454.789C2979.35 228.321 3492.3 112.015 3492.3 112.015L3772.63 1295.25L3984.72 2190.46L521.424 3010.98L309.332 2115.76L202.927 1666.64C202.927 1666.64 607.784 1655.62 1228.95 1181.72C1442.6 1018.72 1608.37 1004.87 1781.94 990.358C2035.64 969.152 2306.03 946.551 2767.04 454.789Z"
        fill="url(#paint0_linear_24_46)" fill-opacity="0.67" />
    </g>
  </g>
  <defs>
    <filter id="filter0_b_24_46" x="142.927" y="52.0156" width="3901.79" height="3018.96"
      filterUnits="userSpaceOnUse" color-interpolation-filters="sRGB">
      <feFlood flood-opacity="0" result="BackgroundImageFix" />
      <feGaussianBlur in="BackgroundImageFix" stdDeviation="30" />
      <feComposite in2="SourceAlpha" operator="in" result="effect1_backgroundBlur_24_46" />
      <feBlend mode="normal" in="SourceGraphic" in2="effect1_backgroundBlur_24_46" result="shape" />
    </filter>
    <linearGradient id="paint0_linear_24_46" x1="1760.65" y1="522.257" x2="3396" y2="3521.5"
      gradientUnits="userSpaceOnUse">
      <stop stop-color="white" />
      <stop offset="1" stop-color="white" stop-opacity="0" />
    </linearGradient>
    <clipPath id="clip0_24_46">
      <rect width="3440" height="1440" fill="white" />
    </clipPath>
  </defs>
</svg>