<svg width="64" height="64" viewBox="0 0 64 64" fill="none" xmlns="http://www.w3.org/2000/svg">
  <path fill-rule="evenodd" clip-rule="evenodd"
    d="M32 64C49.6731 64 64 49.6731 64 32C64 14.3269 49.6731 0 32 0C14.3269 0 0 14.3269 0 32C0 49.6731 14.3269 64 32 64ZM23.07 25.5288L35.11 21.5288C40.51 19.7288 43.4433 22.6754 41.6567 28.0754L37.6433 40.1021C34.95 48.1954 30.5233 48.1954 27.83 40.1021L26.6433 36.5288L23.07 35.3421C14.9767 32.6488 14.9767 28.2354 23.07 25.5288ZM30.47 33.7954L35.5367 28.7021C35.9233 28.3154 35.9233 27.6754 35.5367 27.2888C35.15 26.9021 34.51 26.9021 34.1233 27.2888L29.0567 32.3821C28.67 32.7688 28.67 33.4088 29.0567 33.7954C29.2567 33.9954 29.51 34.0888 29.7633 34.0888C30.0167 34.0888 30.27 33.9954 30.47 33.7954Z"
    fill="white" />
</svg>
  