<svg width="512" height="512" viewBox="0 0 512 512" fill="none" xmlns="http://www.w3.org/2000/svg">
  <rect opacity="0.1" width="512" height="512" fill="#EDA56E" />
  <path
    d="M380.096 209.26V302.74C380.096 318.046 371.896 332.26 358.639 340.05L277.459 386.927C264.202 394.58 247.802 394.58 234.409 386.927L153.229 340.05C139.972 332.397 131.772 318.183 131.772 302.74V209.26C131.772 193.953 139.972 179.74 153.229 171.95L234.409 125.073C247.666 117.42 264.066 117.42 277.459 125.073L358.639 171.95C371.896 179.74 380.096 193.817 380.096 209.26Z"
    stroke="#EDA56E" stroke-width="20.5" stroke-linecap="round" stroke-linejoin="round" />
  <path
    d="M256 242.331C273.586 242.331 287.843 228.074 287.843 210.487C287.843 192.901 273.586 178.645 256 178.645C238.413 178.645 224.156 192.901 224.156 210.487C224.156 228.074 238.413 242.331 256 242.331Z"
    stroke="#EDA56E" stroke-width="20.5" stroke-linecap="round" stroke-linejoin="round" />
  <path
    d="M310.667 319.678C310.667 295.078 286.204 275.125 256.001 275.125C225.797 275.125 201.334 295.078 201.334 319.678"
    stroke="#EDA56E" stroke-width="20.5" stroke-linecap="round" stroke-linejoin="round" />
</svg>
  