<svg width="512" height="512" viewBox="0 0 512 512" fill="none" xmlns="http://www.w3.org/2000/svg">
  <rect opacity="0.1" width="512" height="512" rx="40.96" fill="#A66EED" />
  <path
    d="M347.073 346.681L377.383 331.526V293.57M286.315 225.303L256.005 240.458L286.315 225.303ZM256.005 240.458L225.695 225.303L256.005 240.458ZM256.005 240.458V278.414V240.458ZM377.383 179.701L347.073 194.856L377.383 179.701ZM377.383 179.701L347.073 164.546L377.383 179.701ZM377.383 179.701V217.657V179.701ZM286.315 134.235L256.005 119.08L225.695 134.235H286.315ZM134.627 179.701L164.937 164.546L134.627 179.701ZM134.627 179.701L164.937 194.856L134.627 179.701ZM134.627 179.701V217.657V179.701ZM256.005 392.147L225.695 376.992L256.005 392.147ZM256.005 392.147L286.315 376.992L256.005 392.147ZM256.005 392.147V354.191V392.147ZM164.937 346.681L134.627 331.526V293.57L164.937 346.681Z"
    stroke="#A66EED" stroke-width="20.48" stroke-linecap="round" stroke-linejoin="round" />
</svg>